<?xml version="1.0" encoding="utf-8"?>
<!-- Generator: Adobe Illustrator 18.1.1, SVG Export Plug-In . SVG Version: 6.00 Build 0)  -->
<svg version="1.1" id="图层_1" xmlns="http://www.w3.org/2000/svg" xmlns:xlink="http://www.w3.org/1999/xlink" x="0px" y="0px"
	 viewBox="0 0 300 300" enable-background="new 0 0 300 300" xml:space="preserve">
<g>
	<path fill-rule="evenodd" clip-rule="evenodd" fill="#FFFFFF" d="M89.5,165.1c0.9,0,1.1,0.3,1.4,1.3l6.3,25.8H81.9l6.3-25.8
		C88.4,165.3,88.6,165.1,89.5,165.1z M237.5,189.9c-4.3,6.1-9.5,11.6-15.6,16.5v-48.1c0-1.9-1.5-3.4-3.4-3.4h-7.1
		c-1.4,0-2.6,0.8-3.2,2.1L195,184c-0.4,0.8-0.6,1.2-1,1.2c-0.3,0-0.5-0.4-1-1.2L180,157c-0.6-1.2-1.8-2.1-3.2-2.1h-7.1
		c-1.9,0-3.3,1.5-3.3,3.4V219c0,0.9,0.5,1.3,1.3,1.3h8.8c0.8,0,1.3-0.9,1.3-1.8v-41c0-0.6,0.1-0.9,0.3-0.9c0.1,0,0.3,0.3,0.4,0.5
		l8.4,16.9c0.5,1,1.7,1.5,2.8,1.5h8.8c1.1,0,2.3-0.5,2.8-1.5l8.3-16.9c0.2-0.3,0.4-0.5,0.5-0.5c0.2,0,0.3,0.3,0.3,0.9v36.9
		c-10.6,6.2-22.8,11.2-37.1,15.1c-30,8.1-55.7,7.2-77.2-2.6c-7.3-3.3-13.8-7.8-19.4-13.1l2.8-11.8h20l4,16.7
		c0.2,0.8,0.9,1.6,1.7,1.6h9.2c0.9,0,1.6-0.6,1.6-1.5c0-0.1-0.1-0.3-0.1-0.4l-14.3-54.7c-2.1-8.1-8.4-8.9-12.1-8.9s-10,0.8-12.1,8.9
		l-10.3,39.3c-6.1-8.6-10.8-18.9-14-30.9c-6.6-24.6-2.9-45.8,11.1-63.6c4.7-6,10.3-11.4,16.8-16.2c-1.8,3.9-2.8,8.9-2.8,14.9v10.5
		c0,19.4,10.6,27.5,25.1,27.5c14.5,0,25.1-8.1,25.1-27.5v-10.5c0-19.4-10.6-27.5-25.1-27.5c-0.3,0-0.7,0-1,0
		c8.5-4,17.9-7.3,28.4-10.2c26.5-7.1,50.8-6,72.9,3.4c4.6,2,8.9,4.3,12.9,6.9c-1.8-0.1-3.9-0.1-6.3-0.1c-11.5,0-20.5,3.1-20.5,18.1
		v29.4c0,15,9,18.1,20.5,18.1c10.5,0,14-0.8,16.9-1.2c1.3-0.2,1.8-0.6,1.8-1.9v-5.6c0-1-0.9-1.6-1.9-1.6h-18.1
		c-5.1,0-7.1-1.9-7.1-7.7v-10.6h24.1c1,0,1.8-0.9,1.8-1.9v-6.3c0-1-0.8-1.7-1.8-1.7h-24.1v-8.9c0-5.8,1.9-7.6,7-7.6l19.9,0
		c8.2,8.7,14.1,19.6,17.6,32.7C253.3,149.2,250.4,171.6,237.5,189.9z M121.6,156c-1.7,0.3-2.8,0.9-2.8,2.6v60c0,1,0.7,1.8,1.7,1.8
		h8.6c1,0,1.8-0.8,1.8-1.8v-22.8c1.9,0.1,5.3,0.3,7.6,0.3c13.3,0,24.8-5,24.8-20.4V175c0-15.4-11.5-20.1-24.9-20.1
		C132.2,154.9,126.1,155.3,121.6,156z M182.7,81.4c0-1-0.8-1.7-1.8-1.7h-7.5c-1,0-1.8,0.7-1.8,1.7v46.3c0,0.5-0.2,0.8-0.4,0.8
		c-0.3,0-0.5-0.3-0.7-0.7l-20.2-45.3c-1-2.3-2-2.8-3.8-2.8h-9.4c-1.9,0-3.6,1.6-3.6,3.6v60.2c0,1,0.9,1.7,1.9,1.7h7.4
		c1,0,1.7-0.7,1.7-1.7V99.1c0-0.5,0.1-0.7,0.4-0.7c0.3,0,0.5,0.2,0.8,0.7l19.3,42.9c1.4,3.2,3.2,3.1,5.3,3.1h8.8
		c1.9,0,3.6-1.5,3.6-3.4V81.4z M151.5,175v0.8c0,7-3.6,10.5-12.9,10.5c-1.5,0-6.5-0.2-7.6-0.3v-20.8c1.5-0.2,5.8-0.3,7.6-0.3
		C147.3,164.9,151.5,167.7,151.5,175z M115.8,107.2v10.5c0,11.6-4.1,16.8-12.7,16.8c-8.6,0-12.7-5.2-12.7-16.8v-10.5
		c0-11.6,4.1-16.8,12.7-16.8C111.7,90.3,115.8,95.5,115.8,107.2z"/>
</g>
</svg>
